# xmcd
#
# Track frame offsets:
#	150
#	38402
#	61040
#	83932
#	109455
#	127762
#	150842
#	164152
#	184947
#	208407
#	242700
#	257945
#
# Disc length: 3876 seconds
#
# Revision: 1
# Processed by: cddbd v1.5.1PL0 Copyright (c) Steve Scherf et al.
# Submitted via: audiograbber 1.82.02
#
DISCID=a10f220c
DTITLE=Rob Donnelly Band - No Unecessary Grooving In Here Please
DYEAR=2000
DGENRE=Blues
TTITLE0=Foot of Pride
TTITLE1=Witness
TTITLE2=Stolen Away
TTITLE3=Life's A Bitch
TTITLE4=Loaded Beretta
TTITLE5=Be Patient With Me
TTITLE6=Good Time
TTITLE7=Shiver Me Timbers
TTITLE8=Sophisticated Lady
TTITLE9=A Fool No More
TTITLE10=Watch Out
TTITLE11=No Unececessary Grooving In Here Please
EXTD=
EXTT0=
EXTT1=
EXTT2=
EXTT3=
EXTT4=
EXTT5=
EXTT6=
EXTT7=
EXTT8=
EXTT9=
EXTT10=
EXTT11=
PLAYORDER=
